{
  "accessors": [
    {
      "bufferView": 2,
      "componentType": 5126,
      "count": 54,
      "max": [
        1749.06298828125,
        1001.93798828125,
        114.0
      ],
      "min": [
        -1946.93701171875,
        -1110.06201171875,
        102.8114013671875
      ],
      "type": "VEC3"
    },
    {
      "bufferView": 0,
      "componentType": 5125,
      "count": 72,
      "type": "SCALAR"
    },
    {
      "bufferView": 2,
      "byteOffset": 648,
      "componentType": 5126,
      "count": 65532,
      "max": [
        1925.06298828125,
        1001.9375,
        4586.2216796875
      ],
      "min": [
        -1946.93701171875,
        -1110.0625,
        6.0
      ],
      "type": "VEC3"
    },
    {
      "bufferView": 2,
      "byteOffset": 787032,
      "componentType": 5126,
      "count": 65532,
      "max": [
        1.0,
        1.0,
        1.0
      ],
      "min": [
        -1.0,
        -1.0,
        -1.0
      ],
      "type": "VEC3"
    },
    {
      "bufferView": 0,
      "byteOffset": 288,
      "componentType": 5125,
      "count": 148347,
      "type": "SCALAR"
    },
    {
      "bufferView": 2,
      "byteOffset": 1573416,
      "componentType": 5126,
      "count": 13050,
      "max": [
        1925.06298828125,
        1054.06201171875,
        3613.909423828125
      ],
      "min": [
        -1999.06201171875,
        -1162.18701171875,
        6.0
      ],
      "type": "VEC3"
    },
    {
      "bufferView": 2,
      "byteOffset": 1730016,
      "componentType": 5126,
      "count": 13050,
      "max": [
        1.0,
        1.0,
        1.0
      ],
      "min": [
        -1.0,
        -1.0,
        -1.0
      ],
      "type": "VEC3"
    },
    {
      "bufferView": 0,
      "byteOffset": 593676,
      "componentType": 5125,
      "count": 22503,
      "type": "SCALAR"
    },
    {
      "bufferView": 2,
      "byteOffset": 1886616,
      "componentType": 5126,
      "count": 13208,
      "max": [
        1922.06298828125,
        998.9375,
        2715.0
      ],
      "min": [
        -1943.93701171875,
        -1107.0625,
        6.0
      ],
      "type": "VEC3"
    },
    {
      "bufferView": 2,
      "byteOffset": 2045112,
      "componentType": 5126,
      "count": 13208,
      "max": [
        1.0,
        1.0,
        0.0
      ],
      "min": [
        -1.0,
        -1.0,
        0.0
      ],
      "type": "VEC3"
    },
    {
      "bufferView": 3,
      "componentType": 5126,
      "count": 13208,
      "max": [
        1.0,
        1.0,
        0.0,
        1.0
      ],
      "min": [
        -1.0,
        -1.0,
        0.0,
        -1.0
      ],
      "type": "VEC4"
    },
    {
      "bufferView": 1,
      "componentType": 5126,
      "count": 13208,
      "max": [
        1.0,
        0.9999855756759644
      ],
      "min": [
        0.0,
        -0.02941134013235569
      ],
      "type": "VEC2"
    },
    {
      "bufferView": 0,
      "byteOffset": 683688,
      "componentType": 5125,
      "count": 19812,
      "type": "SCALAR"
    },
    {
      "bufferView": 2,
      "byteOffset": 2203608,
      "componentType": 5126,
      "count": 160,
      "max": [
        1742.06298828125,
        998.9375,
        111.0
      ],
      "min": [
        -1943.93701171875,
        -1107.0625,
        6.0
      ],
      "type": "VEC3"
    },
    {
      "bufferView": 2,
      "byteOffset": 2205528,
      "componentType": 5126,
      "count": 160,
      "max": [
        1.0,
        1.0,
        0.0
      ],
      "min": [
        -1.0,
        -1.0,
        0.0
      ],
      "type": "VEC3"
    },
    {
      "bufferView": 3,
      "byteOffset": 211328,
      "componentType": 5126,
      "count": 160,
      "max": [
        1.0,
        1.0,
        0.0,
        1.0
      ],
      "min": [
        -1.0,
        -1.0,
        0.0,
        -1.0
      ],
      "type": "VEC4"
    },
    {
      "bufferView": 1,
      "byteOffset": 105664,
      "componentType": 5126,
      "count": 160,
      "max": [
        0.9996930956840515,
        1.0
      ],
      "min": [
        -2.220446049250313e-16,
        0.0
      ],
      "type": "VEC2"
    },
    {
      "bufferView": 0,
      "byteOffset": 762936,
      "componentType": 5125,
      "count": 240,
      "type": "SCALAR"
    },
    {
      "bufferView": 2,
      "byteOffset": 2207448,
      "componentType": 5126,
      "count": 318,
      "max": [
        1917.0625,
        993.9375,
        2903.625
      ],
      "min": [
        -1938.93701171875,
        -1102.06298828125,
        433.0
      ],
      "type": "VEC3"
    },
    {
      "bufferView": 2,
      "byteOffset": 2211264,
      "componentType": 5126,
      "count": 318,
      "max": [
        4.2819451086338256e-17,
        2.3891009300477095e-17,
        1.0
      ],
      "min": [
        -4.2819451086338256e-17,
        -2.3891009300477095e-17,
        -1.0
      ],
      "type": "VEC3"
    },
    {
      "bufferView": 3,
      "byteOffset": 213888,
      "componentType": 5126,
      "count": 318,
      "max": [
        1.0,
        3.500252887533861e-07,
        4.2819457703783157e-17,
        1.0
      ],
      "min": [
        -1.4617525323501468e-07,
        -1.0,
        -4.2819461012505607e-17,
        -1.0
      ],
      "type": "VEC4"
    },
    {
      "bufferView": 1,
      "byteOffset": 106944,
      "componentType": 5126,
      "count": 318,
      "max": [
        4.893136024475098,
        2.1917169094085693
      ],
      "min": [
        -4.893136024475098,
        -8.155226707458496
      ],
      "type": "VEC2"
    },
    {
      "bufferView": 0,
      "byteOffset": 763896,
      "componentType": 5125,
      "count": 798,
      "type": "SCALAR"
    },
    {
      "bufferView": 2,
      "byteOffset": 2215080,
      "componentType": 5126,
      "count": 1022,
      "max": [
        2056.52099609375,
        1100.06298828125,
        6.0
      ],
      "min": [
        -2045.06201171875,
        -1208.18701171875,
        0.0
      ],
      "type": "VEC3"
    },
    {
      "bufferView": 2,
      "byteOffset": 2227344,
      "componentType": 5126,
      "count": 1022,
      "max": [
        1.0,
        1.0,
        1.0
      ],
      "min": [
        -1.0,
        -1.0,
        -1.0
      ],
      "type": "VEC3"
    },
    {
      "bufferView": 0,
      "byteOffset": 767088,
      "componentType": 5125,
      "count": 2544,
      "type": "SCALAR"
    },
    {
      "bufferView": 2,
      "byteOffset": 2239608,
      "componentType": 5126,
      "count": 98,
      "max": [
        1925.06298828125,
        1001.93798828125,
        114.0
      ],
      "min": [
        -1946.93701171875,
        -1110.06201171875,
        6.0
      ],
      "type": "VEC3"
    },
    {
      "bufferView": 0,
      "byteOffset": 777264,
      "componentType": 5125,
      "count": 188,
      "type": "SCALAR"
    }
  ],
  "asset": {
    "extras": {
      "author": "jimbogies (https://sketchfab.com/jimbogies)",
      "license": "CC-BY-4.0 (http://creativecommons.org/licenses/by/4.0/)",
      "source": "https://sketchfab.com/3d-models/office-or-apartment-building-6d4dbce51f3b45aea5e165a91c0264ae",
      "title": "Office or Apartment Building"
    },
    "generator": "Sketchfab-15.36.0",
    "version": "2.0"
  },
  "bufferViews": [
    {
      "buffer": 0,
      "byteLength": 778016,
      "name": "floatBufferViews",
      "target": 34963
    },
    {
      "buffer": 0,
      "byteLength": 109488,
      "byteOffset": 778016,
      "byteStride": 8,
      "name": "floatBufferViews",
      "target": 34962
    },
    {
      "buffer": 0,
      "byteLength": 2240784,
      "byteOffset": 887504,
      "byteStride": 12,
      "name": "floatBufferViews",
      "target": 34962
    },
    {
      "buffer": 0,
      "byteLength": 218976,
      "byteOffset": 3128288,
      "byteStride": 16,
      "name": "floatBufferViews",
      "target": 34962
    }
  ],
  "buffers": [
    {
      "byteLength": 3347264,
      "uri": "scene.bin"
    }
  ],
  "images": [
    {
      "uri": "textures/Building01_Diffuse_baseColor.jpeg"
    },
    {
      "uri": "textures/Building01_Diffuse_metallicRoughness.png"
    },
    {
      "uri": "textures/Building01_Diffuse_normal.png"
    },
    {
      "uri": "textures/Building02_Diffuse_baseColor.jpeg"
    },
    {
      "uri": "textures/Building02_Diffuse_metallicRoughness.png"
    },
    {
      "uri": "textures/Building02_Diffuse_normal.png"
    },
    {
      "uri": "textures/Roof_Diffuse_baseColor.jpeg"
    },
    {
      "uri": "textures/Roof_Diffuse_metallicRoughness.png"
    },
    {
      "uri": "textures/Roof_Diffuse_normal.png"
    }
  ],
  "materials": [
    {
      "name": "edge_color000255",
      "pbrMetallicRoughness": {
        "metallicFactor": 0.0,
        "roughnessFactor": 0.6
      }
    },
    {
      "name": "Color01",
      "pbrMetallicRoughness": {
        "baseColorFactor": [
          0.31441259254208875,
          0.3186323690121325,
          0.3206165176906652,
          1.0
        ],
        "metallicFactor": 0.15085760261364606,
        "roughnessFactor": 0.650668649656837
      }
    },
    {
      "name": "Building01_Diffuse",
      "normalTexture": {
        "index": 2
      },
      "pbrMetallicRoughness": {
        "baseColorTexture": {
          "index": 0
        },
        "metallicRoughnessTexture": {
          "index": 1
        }
      }
    },
    {
      "name": "Building02_Diffuse",
      "normalTexture": {
        "index": 5
      },
      "pbrMetallicRoughness": {
        "baseColorTexture": {
          "index": 3
        },
        "metallicRoughnessTexture": {
          "index": 4
        }
      }
    },
    {
      "name": "Roof_Diffuse",
      "normalTexture": {
        "index": 8
      },
      "pbrMetallicRoughness": {
        "baseColorTexture": {
          "index": 6
        },
        "metallicFactor": 0.0,
        "metallicRoughnessTexture": {
          "index": 7
        }
      }
    },
    {
      "name": "Color02",
      "pbrMetallicRoughness": {
        "baseColorFactor": [
          0.2482802702197365,
          0.2482802702197365,
          0.2482802702197365,
          1.0
        ],
        "metallicFactor": 0.0
      }
    },
    {
      "name": "edge_color128128128255",
      "pbrMetallicRoughness": {
        "metallicFactor": 0.0,
        "roughnessFactor": 0.6
      }
    }
  ],
  "meshes": [
    {
      "name": "Material2",
      "primitives": [
        {
          "attributes": {
            "POSITION": 0
          },
          "indices": 1,
          "material": 0,
          "mode": 1
        }
      ]
    },
    {
      "name": "Material2",
      "primitives": [
        {
          "attributes": {
            "NORMAL": 3,
            "POSITION": 2
          },
          "indices": 4,
          "material": 1,
          "mode": 4
        }
      ]
    },
    {
      "name": "Material2",
      "primitives": [
        {
          "attributes": {
            "NORMAL": 6,
            "POSITION": 5
          },
          "indices": 7,
          "material": 1,
          "mode": 4
        }
      ]
    },
    {
      "name": "Material2",
      "primitives": [
        {
          "attributes": {
            "NORMAL": 9,
            "POSITION": 8,
            "TANGENT": 10,
            "TEXCOORD_0": 11
          },
          "indices": 12,
          "material": 2,
          "mode": 4
        }
      ]
    },
    {
      "name": "Material2",
      "primitives": [
        {
          "attributes": {
            "NORMAL": 14,
            "POSITION": 13,
            "TANGENT": 15,
            "TEXCOORD_0": 16
          },
          "indices": 17,
          "material": 3,
          "mode": 4
        }
      ]
    },
    {
      "name": "Material2",
      "primitives": [
        {
          "attributes": {
            "NORMAL": 19,
            "POSITION": 18,
            "TANGENT": 20,
            "TEXCOORD_0": 21
          },
          "indices": 22,
          "material": 4,
          "mode": 4
        }
      ]
    },
    {
      "name": "Material2",
      "primitives": [
        {
          "attributes": {
            "NORMAL": 24,
            "POSITION": 23
          },
          "indices": 25,
          "material": 5,
          "mode": 4
        }
      ]
    },
    {
      "name": "Material2",
      "primitives": [
        {
          "attributes": {
            "POSITION": 26
          },
          "indices": 27,
          "material": 6,
          "mode": 1
        }
      ]
    }
  ],
  "nodes": [
    {
      "children": [
        1
      ],
      "matrix": [
        1.0,
        0.0,
        0.0,
        0.0,
        0.0,
        2.220446049250313e-16,
        -1.0,
        0.0,
        0.0,
        1.0,
        2.220446049250313e-16,
        0.0,
        0.0,
        0.0,
        0.0,
        1.0
      ],
      "name": "Sketchfab_model"
    },
    {
      "children": [
        2,
        3,
        4,
        5,
        6,
        7,
        8,
        9,
        10
      ],
      "name": "Collada visual scene group"
    },
    {
      "mesh": 0,
      "name": "Material2"
    },
    {
      "mesh": 1,
      "name": "Material2"
    },
    {
      "mesh": 2,
      "name": "Material2"
    },
    {
      "mesh": 3,
      "name": "Material2"
    },
    {
      "mesh": 4,
      "name": "Material2"
    },
    {
      "mesh": 5,
      "name": "Material2"
    },
    {
      "mesh": 6,
      "name": "Material2"
    },
    {
      "mesh": 7,
      "name": "Material2"
    },
    {
      "children": [
        11
      ],
      "name": "SketchUp"
    },
    {
      "children": [
        12
      ],
      "matrix": [
        -0.8620284,
        -0.50686,
        -6.938894e-18,
        0.0,
        -0.04243352,
        0.07216767,
        0.9964895,
        0.0,
        -0.5050806,
        0.8590022,
        -0.08371843,
        0.0,
        -2491.353,
        4246.525,
        72.51717,
        1.0
      ],
      "name": "skp_camera_Last_Saved_SketchUp_View"
    },
    {
      "name": "ID1"
    }
  ],
  "samplers": [
    {
      "magFilter": 9729,
      "minFilter": 9987,
      "wrapS": 10497,
      "wrapT": 10497
    }
  ],
  "scene": 0,
  "scenes": [
    {
      "name": "Sketchfab_Scene",
      "nodes": [
        0
      ]
    }
  ],
  "textures": [
    {
      "sampler": 0,
      "source": 0
    },
    {
      "sampler": 0,
      "source": 1
    },
    {
      "sampler": 0,
      "source": 2
    },
    {
      "sampler": 0,
      "source": 3
    },
    {
      "sampler": 0,
      "source": 4
    },
    {
      "sampler": 0,
      "source": 5
    },
    {
      "sampler": 0,
      "source": 6
    },
    {
      "sampler": 0,
      "source": 7
    },
    {
      "sampler": 0,
      "source": 8
    }
  ]
}
